<svg width="24" height="24" viewBox="0 0 24 24" fill="none" xmlns="http://www.w3.org/2000/svg">
<path d="M3.48107 6.59719L3.48104 6.59716L3.47726 6.6014C3.26823 6.83544 3.11794 7.15187 3.00406 7.48528C2.88766 7.82606 2.7965 8.2234 2.72545 8.6508C2.5833 9.50596 2.5149 10.5237 2.5022 11.538C2.48948 12.554 2.5325 13.5801 2.61745 14.4557C2.70036 15.3103 2.8274 16.0702 3.00214 16.532C3.13486 16.9117 3.35993 17.2535 3.65655 17.5298C3.95387 17.8067 4.31454 18.01 4.70756 18.1244C4.95605 18.2008 5.35684 18.256 5.8247 18.3003C6.31108 18.3463 6.91593 18.3842 7.5956 18.4142C8.95577 18.4741 10.6327 18.5031 12.2953 18.4997C13.9576 18.4964 15.6119 18.4608 16.9265 18.3911C17.5831 18.3562 18.1611 18.3125 18.6155 18.2592C18.8425 18.2325 19.0448 18.2027 19.2138 18.169C19.3723 18.1375 19.5369 18.0959 19.6678 18.0336C20.1887 17.7884 20.6132 17.3808 20.8684 16.8716L20.8701 16.8682C21.1023 16.396 21.2516 15.6605 21.3478 14.8573C21.4461 14.0357 21.4955 13.0811 21.4997 12.1303C21.5039 11.1791 21.4631 10.2223 21.3786 9.39551C21.2958 8.58525 21.1669 7.85277 20.9752 7.37658C20.8334 7.01349 20.6084 6.68767 20.3187 6.42248C20.0302 6.15835 19.6847 5.96098 19.3086 5.84338C19.1061 5.77499 18.7821 5.72969 18.4215 5.69387C18.036 5.65557 17.5496 5.62331 16.9945 5.59674C15.8831 5.54355 14.4772 5.51228 13.012 5.50296C10.0942 5.48441 6.90314 5.55272 5.31929 5.71444C4.6141 5.76622 3.95314 6.08054 3.48107 6.59719ZM10.278 9.83483L14.2176 11.8052L10.278 13.7606V9.83483Z" stroke="#676767"/>
</svg>
