<svg width="24" height="24" fill="none" xmlns="http://www.w3.org/2000/svg"><path d="m3.481 6.597-.004.004c-.209.234-.36.55-.473.884a7.481 7.481 0 0 0-.279 1.166c-.142.855-.21 1.873-.223 2.887-.013 1.016.03 2.042.115 2.918.083.854.21 1.614.385 2.076.133.38.358.721.655.998.297.277.658.48 1.05.594.25.077.65.132 1.118.176.486.046 1.09.084 1.77.114 1.36.06 3.038.09 4.7.086a95.687 95.687 0 0 0 4.632-.109 27.853 27.853 0 0 0 1.689-.132c.227-.026.429-.056.598-.09.158-.032.323-.073.454-.135.52-.246.945-.653 1.2-1.162l.002-.004c.232-.472.382-1.207.478-2.01a24.62 24.62 0 0 0 .152-2.728 26.53 26.53 0 0 0-.121-2.734c-.083-.81-.212-1.543-.404-2.02a2.554 2.554 0 0 0-.656-.954 2.68 2.68 0 0 0-1.01-.579c-.203-.068-.527-.113-.887-.15-.386-.037-.872-.07-1.428-.096a100.924 100.924 0 0 0-3.982-.094c-2.918-.019-6.109.05-7.693.211a2.763 2.763 0 0 0-1.838.883Zm6.797 3.238 3.94 1.97-3.94 1.956V9.835Z" stroke="#012028"/></svg>